<svg xmlns="http://www.w3.org/2000/svg" width="109.219" height="17.281" viewBox="0 0 109.219 17.281">
  <defs>
    <style>
      .cls-1 {
        fill: #fff;
        fill-rule: evenodd;
      }
    </style>
  </defs>
  <path id="ТЕХНОМАРТ" class="cls-1" d="M185.421,15.227h3.84v15.12h2.16V15.227h3.84v-1.68h-9.84v1.68Zm13.92,7.2h5.28v-1.68h-5.28v-5.52h6v-1.68h-8.16v16.8h8.16v-1.68h-6v-6.24Zm12.48-2.16-2.64-6.72h-2.16l3.24,8.16-3.6,8.64h2.16l3-7.2,3,7.2h2.16l-3.6-8.64,3.24-8.16h-2.16Zm14.4-6.72v7.44h-5.04v-7.44h-2.16v16.8h2.16v-7.68h5.04v7.68h2.16v-16.8h-2.16Zm8.028,0.168a3.762,3.762,0,0,0-1.62,1.392,7.359,7.359,0,0,0-1.02,2.652,21.01,21.01,0,0,0-.348,4.188,21.009,21.009,0,0,0,.348,4.188,7.353,7.353,0,0,0,1.02,2.652,3.755,3.755,0,0,0,1.62,1.392,5.984,5.984,0,0,0,4.344,0,3.766,3.766,0,0,0,1.62-1.392,7.39,7.39,0,0,0,1.02-2.652,21.084,21.084,0,0,0,.348-4.188,21.085,21.085,0,0,0-.348-4.188,7.4,7.4,0,0,0-1.02-2.652,3.773,3.773,0,0,0-1.62-1.392A5.985,5.985,0,0,0,234.249,13.715Zm1.044,15.12a2.537,2.537,0,0,1-.96-1.128,8.377,8.377,0,0,1-.66-2.208,20.545,20.545,0,0,1-.252-3.552,20.551,20.551,0,0,1,.252-3.552,8.387,8.387,0,0,1,.66-2.208,2.543,2.543,0,0,1,.96-1.128,2.2,2.2,0,0,1,2.256,0,2.555,2.555,0,0,1,.96,1.128,8.387,8.387,0,0,1,.66,2.208,20.551,20.551,0,0,1,.252,3.552,20.545,20.545,0,0,1-.252,3.552,8.377,8.377,0,0,1-.66,2.208,2.55,2.55,0,0,1-.96,1.128A2.194,2.194,0,0,1,235.293,28.835Zm17.448-.648,3.48-10.32h0.12l0.72,12.48h2.16l-0.96-16.8h-2.64l-3.912,11.52h-0.1L247.7,13.547h-2.64l-0.96,16.8h2.16l0.72-12.48h0.12l3.48,10.32h2.16Zm16.319-2.16,1.08,4.32h2.16l-4.08-16.8H265.1l-4.08,16.8h2.16l1.08-4.32h4.8Zm-0.36-1.68h-4.08l1.992-8.4h0.1Zm7.92-.6v-8.88h1.68a4.3,4.3,0,0,1,1.4.2,2.04,2.04,0,0,1,.972.708,3.377,3.377,0,0,1,.564,1.368,10.84,10.84,0,0,1,.18,2.16,10.84,10.84,0,0,1-.18,2.16,3.377,3.377,0,0,1-.564,1.368,2.039,2.039,0,0,1-.972.708,4.3,4.3,0,0,1-1.4.2h-1.68Zm0,1.44a11.468,11.468,0,0,0,1.152.168,12.253,12.253,0,0,0,1.248.072,6.116,6.116,0,0,0,2.028-.3,3.086,3.086,0,0,0,1.416-1.008,4.718,4.718,0,0,0,.84-1.884,13.076,13.076,0,0,0,.276-2.928,12,12,0,0,0-.288-2.856,4.269,4.269,0,0,0-.912-1.848,3.465,3.465,0,0,0-1.632-1,8.675,8.675,0,0,0-2.448-.3,17.338,17.338,0,0,0-2,.108,11.341,11.341,0,0,0-1.836.372v16.56h2.16v-5.16Zm8.16-9.96h3.84v15.12h2.16V15.227h3.84v-1.68h-9.84v1.68Z" transform="translate(-185.406 -13.313)"/>
</svg>
